<mxfile host="app.diagrams.net" modified="2021-09-15T23:56:00.893Z" agent="5.0 (Windows NT 10.0; Win64; x64) AppleWebKit/537.36 (KHTML, like Gecko) Chrome/93.0.4577.63 Safari/537.36" etag="NDnMis8Xdgax-akzZkUT" version="14.9.5" type="github">
  <diagram id="8f4IC6x40EGdw_nBkvUM" name="Page-1">
    <mxGraphModel dx="800" dy="513" grid="1" gridSize="10" guides="1" tooltips="1" connect="1" arrows="1" fold="1" page="1" pageScale="1" pageWidth="827" pageHeight="1169" math="0" shadow="0">
      <root>
        <mxCell id="0" />
        <mxCell id="1" parent="0" />
        <mxCell id="cHxjSx5LAsx3Hu0MT63w-3" style="edgeStyle=orthogonalEdgeStyle;rounded=0;orthogonalLoop=1;jettySize=auto;html=1;" edge="1" parent="1" source="cHxjSx5LAsx3Hu0MT63w-1" target="cHxjSx5LAsx3Hu0MT63w-2">
          <mxGeometry relative="1" as="geometry" />
        </mxCell>
        <mxCell id="cHxjSx5LAsx3Hu0MT63w-4" value="API" style="edgeLabel;html=1;align=center;verticalAlign=middle;resizable=0;points=[];" vertex="1" connectable="0" parent="cHxjSx5LAsx3Hu0MT63w-3">
          <mxGeometry x="-0.1429" y="1" relative="1" as="geometry">
            <mxPoint as="offset" />
          </mxGeometry>
        </mxCell>
        <mxCell id="cHxjSx5LAsx3Hu0MT63w-1" value="类似文件存储服务&lt;br&gt;如：阿里的oss，百度网盘等" style="rounded=1;whiteSpace=wrap;html=1;" vertex="1" parent="1">
          <mxGeometry x="160" y="210" width="120" height="60" as="geometry" />
        </mxCell>
        <mxCell id="cHxjSx5LAsx3Hu0MT63w-2" value="时空大数据数据资源池" style="rounded=1;whiteSpace=wrap;html=1;" vertex="1" parent="1">
          <mxGeometry x="420" y="210" width="120" height="60" as="geometry" />
        </mxCell>
      </root>
    </mxGraphModel>
  </diagram>
</mxfile>
